P1
# Created by GIMP version 2.10.6 PNM plug-in
128 128
0000000000000000000000000000000000000000000000000000000000000000000000
0000000000000000000000000000000000000000000000000000000000000000000000
0000000000000000000000000000000000000000000000000000000000000000000000
0000000000000000000000000000000000000000000000000000000000000000000000
0000000000000000000000000000000000000000000000000000000000000000000000
0000000000000000000000000000000000000000000000000000000000000000000000
0000000000000000000000000000000000000000000000000000000000000001110000
0000000000000000000000000000000000000000000000000000000000000000000000
0000000000000000000000000000000000000000000000000011111000000000000000
0000000000000000000000000000000000000000000000000000000000000000000000
0000000000000000000000000000000000000011111000000000000000000000000000
0000000000000000000000000000000000000000000000000000000000000000000000
0000000000000000000000000011111000000000000000000000000000000000000000
0000000000000000000000000000000000000000000000000000000000000000000000
0000000000000111111100000000000000000000000000000000000000000000000000
0000000000000000000000000000000000000000000000000000000000000000000000
0111111100000000000000000000000000000000000000000000000000000000000000
0000000000000000000000000000000000000000000000000000000000111111110000
0000000000000000000000000000000000000000000000011000000000000000000000
0000000000000000000000000000000000000000000000111111110000000000000000
0000000000000000000000000000000000001000000000000000000000000000000000
0000000000000000000000000000000001111111110000000000000000000000000000
0000000000000000000000011000000000000000000000000000000000000000000000
0000000000000000000011111111110000000000000000000000000000000000000000
0000000000011100000000000000000000000000000000000000000000000000000000
0000000011111111110000000000000000000000000000000000000000000000000001
1100000000000000000000000000000000000000000000000000000000000000011111
1111110000000000000000000000000000000000000000000000000001111000000000
0000000000000000000000000000000000000000000000000000111111111111000000
0000000000000000000000000000000000000000000001111100000000000000000000
0000000000000000000000000000000000000001111111111111000000000000000000
0000000000000000000000000000000001111100000000000000000000000000000000
0000000000000000000000000111111101111111000000000000000000000000000000
0000000000000000000001111110000000000000000000000000000000000000000000
0000000000000111111111111111000000000000000000000000000000000000000000
0000000001111111000000000000000000000000000000000000000000000000000001
1111111111111111000000000000000000000000000000000000000000000000000111
1111100000000000000000000000000000000000000000000000000011111110111111
1111000000000000000000000000000000000000000000000000000111111111000000
0000000000000000000000000000000000000000001111111111111111111100000000
0000000000000000000000000000000000000000000111101111100000000000000000
0000000000000000000000000000111111111011111111111110000000000000000000
0000000000000000000000000000000111111111110000000000000000000000000000
0000000000000011111111111111111111111100000000000000000000000000000000
0000000000000000000111010111111100000000000000000000000000000000000000
1111111111011111111111111100000000000000000000000000000000000000000000
0000000111101011111110000000000000000000000000000000000111111111101111
1111111111111100000000000000000000000000000000000000000000000000011111
0101011111100000000000011111111010000001111111111111111111111111111111
1110000000000000000000000000000000000000000000000000011101110101010111
1100000010100101010101011111111111111010110111111111111111110000000000
0000000000000000000000000000000000000000011110011010101101111111010110
1000000101101111111111011111111111111111111111111000000000000000000000
0000000000000000000000000000011011010000000010111111110100000000000011
1111111101110111111111011111111111110000000000000000000000000000000000
0000000000000000011101000000000001011111010000000000000000101101011101
1110111111111111111011110000000000000000000000000000000000000000000000
0000010100000000000000010101010000000000000000101011111111111111011111
1111111111110000000000000000000000000000000000000000000000000001100000
0000000000101101000000000000000000010110110111011111111111011111111111
0000000000000000000000000000000000111111000000000000110000000001110000
0101100000000000000000001011111111111111101111111111111111000000000000
0000000000000000000011111111111000000011000000000001111100110100000000
0001111100101011011011101101111111111111111111000000000000000000000000
0000001111111111111110000001100100000000111110101000010000000001111000
0101111111111111111111111111111111000000000000000000000000000000111111
1111111111100010000000000000011111010010000000000000111100101101110111
1111110111011111011111000000000000000000000000000001111110101111111111
0011101001000000011111011000000000000000111110010110111110110111111111
1111111111000000000000000000000000000011111000001011111111101000000110
0000001111100010100100000000011111010111110111111111111111111111111100
0000000000000000000000000011101000000010111111111100100110000001111111
1000000100000000111111001011111111111110111111111111111000000000000000
0000000000000111110000000011111111111010000111000011111101001001011000
0000111111101110111011011111110111111111111100000000000000000000000000
0111100000000011111111111100100111110111111110100000011000000011111110
1011011111110111111110111111111000000000000000000000000000011110000000
0001111111111110000111111111111111001001011100000111111101011111101111
1111111111111011111000000000000000000000000000011110000000000111111111
1111010011111111111101101000011111111111111101101111111111110111111111
1111111000000000000000000000000000111100000000000111111111111100010111
1111111110100010011111111111111110111011101101111110111111111111100000
0000000000000000000000011110000000001111111111111110100111111111101011
0010001111111111111101011101111111111111111111111111000000000000000000
0000000000011111000000001111111111111110010001111111010101000101011111
1111111010111111110111011111111111101111000000000000000000000000000001
1111000000001111111111111110101010010101011101110000011111111111010110
1110111111111111110111111111000000000000000000000000000001111110000001
1111111111111111010101010101101110101010101111111110111111101111101110
1110111111111111000000000000000000000000000001111111101111111111111111
1111110110110110110110101010000001110101001011111111111111111111111111
1111000000000000000000000000000001111111111111111111111111111110101010
1101101101101010101010001011111111110110111111111111111111111000000000
0000000000000000000000111111111111111111111111111111111111011110111111
1010101010101100110110111111101110111111111011111000000000000000000000
0000000000111111111111111111111111111110101011110111101010110110101101
0111111111111111111111111111111111111000000000000000000000000000000011
1111111111111111111111111111111110111010111111110110101011010110110110
1101111111011101111111110000000000000000000000000000000001111111111111
1111111111111111010111011111101010111111111111111111111111111110111111
1111111111110000000000000000000000000000000000111111111111111111111111
1111111011101010111111101010101010110110111111011111111111111111111111
0000000000000000000000000000000000111111111111111111111111111101111011
1111101011011111111111111111111111111111011111111110111110000000000000
0000000000000000000000011111111111111111111111111111011110110111101111
1101101110110111011111111111111111111111111110000000000000000000000000
0000000000001111111111111111111111111101110111111101111011011111101111
1101111111111111110111111111111110000000000000000000000000000000000000
1111111111111111111111111111111110101110111111111011111101111111111111
1111111110111111111100000000000000000000000000000000000000011111111111
1111111111111010110111111111101011011111110111111011111111111111111111
1101111101000000000000000000000000000000000000001111111111111111111111
1111111101101011111111110110111111011111111111111111111111111111100001
0000000000000000000000000000000000000111111111111111111111110110111111
1110111011111111111011111111111111111111111111111111101000000000000000
0000000000000000000000000001111111111111111110111111011101111101111101
1101111111111111111111111111111111111111100100100000000000000000000000
0000000000000000111111111111111011111011110111011111110111111111111111
1111111011111111111110111111001000000000000000000000000000000000000000
0000000111111111111101011111111111111101111111111111111111111111110101
0111111111111110100010010000000000000000000000000000000000000000000101
0111111111101110111101101111111111111111111111111111111110100111111111
1101001000000000000000000000000000000000000000000000000000000111111111
0111111111111111011011111111111111111111111111111000111111110010010100
1000000000000000000000000000000000000000000000000011111111101010111110
1101111111111111111111111111111111010111011111111100100000000000000000
0000000000000000000000000000000000010000111111111111101111111111111011
1111111111111111111111111010100111111110001010000000000000000000000000
0000000000000000000010000100001111111010111011111101111111011111111111
1111111111111111011001111111100000100000000000000000000000000000000000
0000000000000010100111111111011111011111011111111101111011101111111111
1111101110101111111100000000000000000000000000000000000000000000000100
1000010001111111110101111111111111111111111111111111111111111111101010
1011100000000000000000000000000000000000000000000000000000001001010101
1111111111010101110111011111111111111111011011111111111011101011111100
0000000000000000000000000000000000000000000000000000000101011111111111
1111011111111110111111110111111111111111111110110100000010000000000000
0000000000000000000000000000000000100101010001010111111111111111110111
0111110110111011111111111001111111110110000011000000000000000000000000
0000000000000000000000000000001010010101111111111111011101111101111111
1111111111101010011111111010000001010000000000000000000000000000000000
0000000000000001000001000100101111111111111111111111111111111111111010
1001000011111010000000001001111100000000000000000000000000000000000000
1000010010010010010010111111111111111111111111111111101010010010100111
0101000000001111101111000000000000000000000000000000000000000000000000
1001001010010111111111111111111111111010101001001000000000110111100000
1111000111100000000000000000000000000000000000000000100100001001001010
0100101111111111111111010100010010010010010000001010111000111010101111
0000000000000000000000000000000000000000000001001000100001001010000000
1001000000010010010010000000000000000000001111111010101111000000000000
0000000000000000000000000000000000000010001010010001010101001010101100
1001000000100010000000000000010011111001011111100000000000000000000000
0000000000000000000000000000000000001010001000100000100000100010010000
0000000000000000000000111110111111100000000000000000000000000000000000
0000000000000001001001000000100010001010001010000000000000000000000000
0000000001110111111111110000000000000000000000000000000000000000000000
0000000000000000000001000000000000010000000000000000000000000000000011
1111111111110000000000000000000000000000000000000000000000000000000001
0000100000000001000000000000000000000000000000000000000011111111111111
0000000000000000000000000000000000000000000000000000000000000000000000
0000000000000000000000000000000000000000000001111111111111100000000000
0000000000000000000000000000000000000000000000000000000000000000000000
0000000000000000000000000000000000111111111111100000000000000000000000
0000000000000000000000000000000000000000000000000000000000000000000000
0000000000000000000000011111111111100000000000000000000000000000000000
0000000000000000000000000000000000000000000000000000000000000000000000
0000000000001111111111110000000000000000000000000000000000000000000000
0000000000000000000000000000000000000000000000000000000000000000000000
0001111111110000000000000000000000000000000000000000000000000000000000
0000000000000000000000000000000000000000000000000000000000000001111111
0000000000000000000000000000000000000000000000000000000000000000000000
0000000000000000000000000000000000000000000000000000011111000000000000
0000000000000000000000000000000000000000000000000000000000000000000000
0000000000000000000000000000000000000000000111100000000000000000000000
0000000000000000000000000000000000000000000000000000000000000000000000
0000000000000000000000000000000001100000000000000000000000000000000000
0000000000000000000000000000000000000000000000000000000000000000000000
0000000000000000000000000000000000000000000000000000000000000000000000
0000000000000000000000000000000000000000000000000000000000000000000000
0000000000000000000000000000000000000000000000000000000000000000000000
0000000000000000000000000000000000000000000000000000000000000000000000
0000000000000000000000000000000000000000000000000000000000000000000000
0000000000000000000000000000000000000000000000000000000000000000000000
0000000000000000000000000000000000000000000000000000000000000000000000
0000000000000000000000000000000000000000000000000000000000000000000000
0000000000000000000000000000000000000000000000000000000000000000000000
0000000000000000000000000000000000000000000000000000000000000000000000
0000000000000000000000000000000000000000000000000000000000000000000000
0000000000000000000000000000000000000000000000000000000000000000000000
0000000000000000000000000000000000000000000000000000000000000000000000
0000000000000000000000000000000000000000000000000000000000000000000000
0000000000000000000000000000000000000000000000000000000000000000000000
0000000000000000000000000000000000000000000000000000000000000000000000
0000000000000000000000000000000000000000000000000000000000000000000000
0000000000000000000000000000000000000000000000000000000000000000000000
0000000000000000000000000000000000000000000000000000000000000000000000
0000000000000000000000000000000000000000000000000000000000000000000000
0000000000000000000000000000000000000000000000000000000000000000000000
0000000000000000000000000000000000000000000000000000000000000000000000
0000000000000000000000000000000000000000000000000000000000000000000000
0000000000000000000000000000000000000000000000000000000000000000000000
0000000000000000000000000000000000000000000000000000000000000000000000
0000000000000000000000000000000000000000000000000000000000000000000000
0000000000000000000000000000000000000000000000000000000000000000000000
0000000000000000000000000000000000000000000000000000000000000000000000
0000000000000000000000000000000000000000000000000000000000000000000000
0000000000000000000000000000000000000000000000000000000000000000000000
0000000000000000000000000000000000000000000000000000000000000000000000
0000000000000000000000000000000000000000000000000000000000000000000000
0000000000000000000000000000000000000000000000000000000000000000000000
0000000000000000000000000000000000000000000000000000000000000000000000
0000000000000000000000000000000000000000000000000000000000000000000000
0000000000000000000000000000000000000000000000000000000000000000000000
0000000000000000000000000000000000000000000000000000000000000000000000
0000000000000000000000000000000000000000000000000000000000000000000000
0000000000000000000000000000000000000000000000000000000000000000000000
0000000000000000000000000000000000000000000000000000000000000000000000
0000000000000000000000000000000000000000000000000000000000000000000000
0000000000000000000000000000000000000000000000000000000000000000000000
0000000000000000000000000000000000000000000000000000000000000000000000
0000000000000000000000000000000000000000000000000000000000000000000000
0000000000000000000000000000000000000000000000000000000000000000000000
0000000000000000000000000000000000000000000000000000000000000000000000
0000000000000000000000000000000000000000000000000000000000000000000000
0000000000000000000000000000000000000000000000000000000000000000000000
0000000000000000000000000000000000000000000000000000000000000000000000
0000000000000000000000000000000000000000000000000000000000000000000000
0000000000000000000000000000000000000000000000000000000000000000000000
0000000000000000000000000000000000000000000000000000000000000000000000
0000000000000000000000000000000000000000000000000000000000000000000000
0000000000000000000000000000000000000000000000000000000000000000000000
0000000000000000000000000000000000000000000000000000000000000000000000
0000000000000000000000000000000000000000000000000000000000000000000000
0000000000000000000000000000000000000000000000000000000000000000000000
0000
