P1
# Created by GIMP version 3.0.2 PNM plug-in
150 180
1111111111111111111111111111111111111111111111111111111111111111111111
1111111111111111111111111111111111111111111111111111111111111111111111
1111111111100000000000000000000000000000000000000000000000000000000000
0000000000000101100000000000000000000000000000000000000000000000000000
0000000000000000000110000000000000000000000000000000000000000000000000
0000000000000000000000001010000000000000000000000000000000000000000000
0000000000000000000000000000011000000000000000000000000000000000000000
0000000000000000000000000000000001011000000000000000000000000000000000
0000000000000000000000000000000000000001100000000000000000000000000000
0000000000000000000000000000000000000000000001100000000000000000000000
0000000000000000000000000000000000000000000000000110000000000000000000
0000000000000000000000000000000000000000000000000000001010000000000000
0000000000000000000000000000000000000000000000000000000000011000000000
0000000000000000000000000000000000000000000000000000000000000010011000
0000000000000000000000000000000000000000000000000000000000000000000001
1000000000000000000000000000000000000000000000000000000000000000000000
0001011000000000000000000000000000000000000000000000000000000000000000
0000000001100000000000000000000000000000000000000000000000000000000000
0000000000000001100000000000000000000000000000000000000000000000000000
0000000000000000000110000000000000000000000000000000000000000000000000
0000000000000000000000010110000000000000000000000000000000000000000000
0000000000000000000000000000011000000000000000000000000000000000000000
0000000000000000000000000000000000101000000000000000000000000000000000
0000000000000000000000000000000000000001100000000000000000000000000000
0000000000000000000000000000000000000000001001110000000000000000000000
0000000000000000000000000000000000000000000000000110000000000000000000
0000000000000000000000000000000000000000000000000000010100000000000000
0000000000000000000000000000000000000000000000000000000000011000000000
0000000000000000000000000000000000000000000000000000000000000000001100
0000000000000000000000000000000000000000000000000000000000000000000001
1000000000000000000000000000000000000000000000000000000000000000000000
0010011100000000000000000000000000000000000000000000000000000000000000
0000000001100000000000000000000000000000000000000000000000000000000000
0000000000000010010000000000000000000000000000000000000000000000000000
0000000000000000000110000000000000000000000000000000000000000000000000
0000000000000000000000010011000000000000000000000000000000000000000000
0000000000000000000000000000011000000000000000000000000000000000000000
0000000000000000000000000000000000010100000000000000000000000000000000
0000000000000000000000000000000000000001100000000000000000000000000000
0000000000000000000000000000000000000000000100010000000000000000000000
0000000000000000000000000000000000000000000000000110000000000000000000
0000000000000000000000000000000000000000000000000000001111100000000000
0000000000000000000000000000000000000000000000000000000000011000000000
0000000000000000000000000000000000000000000000000000000000000001000100
0000000000000000000000000000000000000000000000000000000000000000000001
1000000000000000000000000000000000000000000000000000000000000000001000
1000011110000000000000000000000000000000000000000000000000000000000000
0000000001100000000000000000000000000000000000000000000000000000000000
0000001000010110010000000000000000000000000000000000000000000000000000
0000000000000000000110000000000000000000000000000000000000000000000000
0000000000000001001101110001100000000000000000000000000000000000000000
0000000000000000000000000000011000000000000000000000000000000000000000
0000000000000000000000010001011110011010000000000000000000000000000000
0000000000000000000000000000000000000001100000000000000000000000000000
0000000000000000000000000000000000010001011110011000000000000000000000
0000000000000000000000000000000000000000000000000110000000000000000000
0000000000000000000000000000000000000000000101010010111001100000000000
0000000000000000000000000000000000000000000000000000000000011000000000
0000000000000000000000000000000000000000000000000000000000100111110110
0000000000000000000000000000000000000000000000000000000000000000000001
1000000000000000000000000000000000000000000000000000000000000000010010
0101110110000000000000000000000000000000000000000000000000000000000000
0000000001100000000000000000000000000000000000000000000000000000000000
0010000110101111101100000000000000000000000000000000000000000000000000
0000000000000000000110000000000000000000000000000000000000000000000000
0000000000000100100101111111100000000000000000000000000000000000000000
0000000000000000000000000000011000000000000000000000000000000000000000
0000000000000000000000001000001011110110000000000000000000000000000000
0000000000000000000000000000000000000001100000000000000000000000000000
0000000000000000000000000000000101000101011111111000000000000000000000
0000000000000000000000000000000000000000000000000110000000000000000000
0000000000000000000000000000000000000000000001000000011111100000000000
0000000000000000000000000000000000000000000000000000000000011000000000
0000000000000000000000000000000000000000000000000000011000100111111110
0000000000000000000000000000000000000000000000000000000000000000000001
1000000000000000000000000000000000000000000000000000000000000000000100
0101111110000000000000000000000000000000000000000000000000000000000000
0000000001100000000000000000000000000000000000000000000000000000000000
0000100101001111111000000000000000000000000000000000000000000000000000
0000000000000000000110000000000000000000000000000000000000000000000000
0000000000001000000001011111100000000000000000000000000000000000000000
0000000000000000000000000000011000000000000000000000000000000000000000
0000000000000000000000000101010010111100000000000000000000000000000000
0000000000000000000000000000000000000001100000000000000000000000000000
0000000000000000000000000000000000000000110111110000000000000000000000
0000000000000000000000000000000000000000000000000110000000000000000000
0000000000000000000000000000000000000000000000100001011110000000000000
0000000000000000000000000000000000000000000000000000000000011000000000
0000000000000000000000000000000000000000000000000000000100100010111000
0000000000000000000000000000000000000000000000000000000000000000000001
1000000000000000000000000000000000000000000000000000000000000000000010
1001110000000000000000000000000000000000000000000000000000000000000000
0000000001100000000000000000000000000000000000000000000000000000000000
0000001000101010000000000000000000000000000000000000000000000000000000
0000000000000000000110000000000000000000000000000000000000000000000000
0000000000000000010010010100000000000000000000000000000000000000000000
0000000000000000000000000000011000000000000000000000000000000000000000
0000000000000000000000000100100110101000000000000000000000000000000000
0000000000000000000000000000000000000001100000000000000000000000000000
0000000000000000000000000000000000011010010100101000000000000000000000
0000000000000000000000000000000000000000000000000110000000000000000000
0000000000000000000000000000000000000000001000000010101101010110000000
0000000000000000000000000000000000000000000000000000000000011000000000
0000000000000000000000000000000000000000000000000001010010010010101010
1100100000000000000000000000000000000000000000000000000000000000000001
1000000000000000000000000000000000000000000000000000000010010001100101
1001000101011111010000000000000000000000000000000000000000000000000000
0000000001100000000000000000000000000000000000000000000000000000000010
0100101010011111100110011111100000000000000000000000000000000000000000
0000000000000000000110000000000000000000000000000000000000000000000000
0010011000101001010111101011100101011011000000000000000000000000000000
0000000000000000000000000000011000000000000000000000000000000000000000
0000000000010010001110011011011011101111010001111110000000000000000000
0000000000000000000000000000000000000001100000000000000000000000000000
0000000000000000000000000110000010010110010011101111101001111110000000
0000000000000000000000000000000000000000000000000110000000000000000000
0000000000000000000000000000010001010100101001000101111110111111100111
1111000000000000000000000000000000000000000000000000000000011000000000
0000000000000000000000000000000000000000100000001010011001101010011111
1111111011111110000000000000000000000000000000000000000000000000000001
1000000000000000000000000000000000000000000000000100001000000010011001
0101101101111111110111111000000000000000000000000000000000000000000000
0000000001100000000000000000000000000000000000000000000000000101001001
1000000000101010111111111111101111110000000000000000000000000000000000
0000000000000000000110000000000000000000000000000000000000000000010100
0000010000100110011001101101111111111110111111100000000000000000000000
0000000000000000000000000000011000000000000000000000000000000000000000
0000000000100000001000001010011001011110111111111111111110000000000000
0000000000000000000000000000000000000001100000000000000000000000000000
0000000000000000001000010010000010000101011011110111111111111111111100
0000000000000000000000000000000000000000000000000110000000000000000000
0000000000000000000000000000100000000010010001000110010001111111111111
0111111100000000000000000000000000000000000000000000000000011000000000
0000000000000000000000000000000000000100000000010001000010100110011110
1111111111111111110000000000000000000000000000000000000000000000000001
1000000000000000000000000000000000000000000010000001001000000001101001
0011110011111111111111011111100000000000101000000000000000000000000000
0000000001100000000000000000000000000000000000000000000001000000010000
0010000101010110111011111111111111111110000000000110110000000000000000
0000000000000000000110000000000000000000000000000000000000000000100001
0000001001100001001010101001110111111111111110111000001001100100000000
0000000000000000000000000000011000000000000000000000000000000000000000
0000000000000000000000011010011000111101110111111111111111110001011001
0010000000000000000000000000000000000001100000000000000000000000000000
0100000000001000011000010000001000000101011101001111111111111111111110
0011110110011000000000000000000000000000000000000110000000000000000000
0000000001001101000000000100000000001001001101101001100111111111111111
1111111111111101000110100000000000000000000000000000000000011000000000
0000000000000000000001001010000000000000000001000001000001010101101010
0111111111111111111111111101000110000000000000000000000000000000000001
1000000000000000000000000000100100011100000010000001000000010010110001
0111111111111111111111111111111111100110011000000000000000000000000000
0000000001100000000000000000000000000000001100011100010001000010001101
1000001010101011111111111111111111111111111111001011100000000000000000
0000000000000000000110000000000000000000000000000010001011100001000000
0000011011010110001001111111111111111111111111111111111001011110000000
0000000000000000000000000000011000000000000000000000000000000001000111
1000000010010101011010010011001101111111111101111111111111111111111001
1110000000000101000000000000000000000001100000000000000000000000000000
0000010101100000010000001111111100000001101111111111111111111111111111
1111100101110000000011001011000000000000000000000110000000000000000000
0000000000000110101111001000000001011111111000001001111111111111101111
1111111111111101001111000000100001010100000000000000000000011000000000
0000000000000000000000000100111001001000001011101111100000001111111111
1111111111111111111111111001111110001000000111011000000000000000000001
1000000000000000000000000000000001000111110010000100011111111110010010
1111111111111100111111111111111111011011110000000111000111100000000000
0000000001100000000000000000000000000000000110010111010000000010011111
1110001011111111111111111011111111111111111001011111000010100001101111
0000000000000000000110000000000000000000000000000000000100011100000100
0000111111111000101111111111111111111111111111111111111011111000000000
0101011011100000000000000000011000000000000000000000000000000000000101
1110001000000111111111000000111111111111111111111111111111111101101111
1000001000010111111110000000000000000001100000000000000000000000000000
0000011001110100001000000011111000011001011111111111100111111111111111
1110001111100001000100010110111000000000000000000110000000000000000000
0000000000000000100101101001000000011000000001001010111111111111011111
1111111111110111111100000010101000011111100000000000000000011000000000
0000000000000000000000000001001100000000010000000010000001010111111111
1110111111111111111111110111110000100000011111011111000000000000000001
1000000000000000000000000000000000000001111000100000000000000000000100
1111111111111111111111110111111010111111000010001001101101111000000000
0000000001100000000000000000000000000000000000000101100000100000000000
0110001010101111111111111111111111111111110101111000000001001001011111
1100000000000000000110000000000000000000000000000000000000101011100100
0010100000000010010101111111111111111111111111111111111111000010100101
0001101111110000000000000000011000000000000000000000000000000000000001
0111000000100000001000100110101111111111111111111111111111111100110010
0000000000011011011111000000000000000001100000000000000000000000000000
0000000000101100000100100000100000101111111111111111111111111110111111
1111110010010101000010011111111100000000000000000110000000000000000000
0000000000000000000001111000000000011000111111111111111111111111111111
1111111111110110000110000001010110011010110000000000000000011000000000
0000000000000000000000000000001100101001100010000101111111111111111111
1111111111111111111111111000001110000100001101111111000000000000000001
1000000000000000000000000000000000000000001111000000100001010001111111
1111111111111111111111011111111011110110000010000110101101111100000000
0000000001100000000000000000000000000000000000000001011000001110001001
1000111111100111111111111111111011111111111110000001110001000111111111
1100000000000000000110000000000000000000000000000000000000000010111000
0000110110011000001010111111111111111111111111111101100000010000010001
1000011101110000000000000000011000000000000000000000000000000000000000
0001010001010110010110100000001111111111111111111111111111110111000110
0000010110010110011111000000000000000001100000000000000000000000000000
0000000000001010110000000010100101111111111111111111111111110111111111
1110000000101100010010101111111100000000000000000110000000000000000000
0000000000000000000000000110010100100101011010111111111111111111111111
1111111110101000000010110010101011001111110000000000000000011000000000
0000000000000000000000000000000001010100000010011001101101101111111111
1111010001011111111111100000000000010101010111111111000000000000000001
1000000000000000000000000000000000000000000010010000010010010101011010
1111111111111010111111100011111100000000000110000110110111111110000000
0000000001100000000000000000000000000000000000000000000100101000000000
1010101011010110111101101111111110001110010000000000000110101101111011
0110000000000000000110000000000000000000000000000000000000000000000101
0101000000010101101011111111011010111011100000000111000000000001100101
0101010111111000000000000000011000000000000000000000000000000000000000
0000010000000000100100000010100101000110011101111111000000000000000000
0000010011110110011111000000000000000001100000000000000000000000000000
0000000000000000000000000100000000000010011010000110111111111000000000
0000000000000000001000001011111110000000000000000110000000000000000000
0000000000000000000000000000000100000010011000100000001010101111111111
1110100000000000000000000010001001010101111000000000000000011000000000
0000000000000000000000000000000000000000000000001000101010000101001111
1110111111110110000000000000000000100000000101100111100000000000000001
1000000000000000000000000000000000000000000000011010000100000000000001
1010111010001010100111000110000000000000000000001010011011111110000000
0000000001100000000000000000000000000000000000000000000000100001010000
0101000000000110010100110001111000000100000000000000000010010000010111
1110000000000000000110000000000000000000000000000000000000000000000000
0000000001000010010100000000001000110001001010001000000000000000100000
0101001111111000000000000000011000000000000000000000000000000000000000
0000000000000100100001000010000010011001000001001001000001010000000000
0001001000000011111111100000000000000001100000000000000000000000000000
0000000000000001100000000100000000100010010000000000100010010010100000
0000000000000000000110111010111100000000000000000110000000000000000000
0000000000000000000000000001100000000001000100000000000000001001000000
0000100001101000000000001010010010101111110000000000000000011000000000
0000000000000000000000000000000000000000010100100001000010001010001001
0000101001010000100000010000000001000000010101011111000000000000000001
1000000000000000000000000000000000000000000000100001100000100010100000
0000000000010010001010000000001010100000000010100001001111111100000000
0000000001100000000000000000000000000000000000000001000000100000010000
1000000100100110011000000001000010010100000001100001101000010010100111
1100000000000000000110000000000000000000000000000000000000001010100100
0000001000000000000110010000000110110000100001100100111010100001011000
1101011111100000000000000000011000000000000000000000000000000000000000
0000000000010000001000010100000000000100000000000100100000000100011100
0000100010001010111110000000000000000001100000000000000000000000000000
0000000001000001001010000000000100001000100001000010001010100010101001
1001110000110111000101101111111000000000000000000110000000000000000000
0000000000000000000010010010000010010110000001001000100010010001000000
0110000000001000100100100101010001011111000000000000000000011000000000
0000000000000000000000000001000010000000000000010000000010000000000000
1001011010100100001001011000000000111000101001111000000000000000000001
1000000000000000000000000000000000000001000010101001001000001000000000
1000010010000000000000000111000100001010111010111001011111100000000000
0000000001100000000000000000000000000000000001000000000000000010000000
0001000000101000100110000010011000010001001010001000010011011001111100
0000000000000000000110000000000000000000000000000000000000011101010100
0000011001000000100000000000000001010000000100010101100010011010110110
1011111100000000000000000000011000000000000000000000000000000001101010
0000100000000000000010001000100000011000100100000110100001001000011001
0101111111011111100000000000000000000001100000000000000000000000000000
0000000000100100001001010000100010001000100100000100000101000010101001
0101100110100101111011111100000000000000000000000110000000000000000000
0000000000000000010101000001000000000000000000000010001001001000010110
1000111001101001000010111011111111110000000000000000000000011000000000
0000000000000000000000011000000001100000101010010101000110000000000010
0001000000101000010001011010110111111111111100000000000000000000000001
1000000000000000000000000000000000000000101110000110000000000101010010
0110000000000101000100100110011010100100011111111111100000000000000000
0000000001100000000000000000000000000000010010011000101010000001000010
0000000000000010010010000010000100100111010110101010111111111100000000
0000000000000000000110000000000000000000000000000000000000010010100000
0010001010001001001010001001010010000000110010101001001001000111111110
0000000000000000000000000000011000000000000000000000000000001001100100
1011100110100000000000000000000000000000100001011000010101111011011101
1011111000000000000000000000000000000001100000000000000000000000000001
0100100101011110000100000000000001100100001001101001000101101001001001
1110111010010111000000000000000000000000000000000110000000000000000000
0000000000000000000000111000000001000101010000001010000000000001000000
0110010110010110011010111100000000000000000000000000000000011000000000
0000000000000000010000100100001011100000100001100111000000100100001000
0001110000101001100101011110010111100000000000000000000000000000000001
1000000000000000000000000000000000000101000001011000000000001001101000
0001010010010000101000001011110111001110100110000000000000000000000000
0000000001100000000000000000000000000000010000000000000000000011000001
1111010100000100000010100100100001010100110011011101011000000000000000
0000000000000000000110000000000000000000000000001000000010101001000000
1000010110111111100110000010100101000100110010101110111011001011110000
0000000000000000000000000000011000000000000000000000000000000010011000
1000000000100001111111111101000001100000001000100101010110101001100111
0111100000000000000000000000000000000001100000000000000000000000000000
1000000000001000100000010010111111101001100000110111111111111010010101
1111111101011111100000000000000000000000000000000110000000000000000000
0000001001000000000010001000100010010011111111111010111001111111111011
1110101011011000100111101110000000000000000000000000000000011000000000
0000000000000000000010001010010000000100100001010111111111111110010001
1111111101110001010101101111110111111000000000000000000000000000000001
1000000000000000000000000000010001000000000000000000010001101111111101
1011000101110111101111000010110111010110111110100000000000000000000000
0000000001100000000000000000000000001000000010010000011000011000000000
1111110000111001011111111111111110100110110111111101111111000000000000
0000000000000000000110000000000000000000000000001000010000000000000001
0001100001001111110111110101011101110111111010010110101011111101111100
0000000000000000000000000000011000000000000000000000000100000100000010
1000001000000000010011111100101011000111111111111111000110101011110110
1111111100000000000000000000000000000001100000000000000000000000000010
0000010100100000000000100100001011111111010101011111111111111110010101
0101101110111111110000000000000000000000000000000110000000000000000000
0000000000001000000000000010010000000001010111111110100111111011111011
1111001010111110111101111111000000000000000000000000000000011000000000
0000000000000000100000000000100001010001101001101001111111111110111111
1101111111111001001111011111101101111100000000000000000000000000000001
1000000000000000000000000000100100001000000000100000000000000011111111
1010110111111111111111110011010101101111111111111000000000000000000000
0000000001100000000000000000000000000000001000001010000010000000000000
1011111111110111111111111111011111011011111101111111101111000000000000
0000000000000000000110000000000000000000000000000100000100000001000010
1001011010011111111111110101110111111111111000010010101110110111111110
0000000000000000000000000000011000000000000000000000000000010110001010
0000100000100100000101111111111111111011111011111111110110111010010110
1111111110000000000000000000000000000001100000000000000000000000000000
0000010000010000010000000010001011111111111011110111111111111111001101
1111111111101111111000000000000000000000000000000110000000000000000000
0000000000011001000100100000000001000000111111111111111111111111111111
1111100111111111110111111111100000000000000000000000000000011000000000
0000000000000000000000001001000000010000100001011011111111111111011011
1001111111111100101001010110111110111110000000000000000000000000000001
1000000000000000000000000000001000000110011000011010000001011111111111
1111010111111111111111111101111111111111111111111000000000000000000000
0000000001100000000000000000000000000000001001000101000100000001011010
1111111111111111110111111111111111000110011001011011111111110000000000
0000000000000000000110000000000000000000000000000000001000001000010110
0000100011111111111111110111111111111111111110111111111101110111111110
0000000000000000000000000000011000000000000000000000000000001000000101
0001000001011001111111111111111001011111111111111111111010011010011111
1101111111000000000000000000000000000001100000000000000000000000000000
0010000000100110101010100111111111111110111011111101111111111111100101
1111110111111111111100000000000000000000000000000110000000000000000000
0000000000000010001000000000001001111111111111111111111101111111111111
1111100111101111111011111111110000000000000000000000000000011000000000
0000000000000000000010010000000000000000010111100111101111011010111110
1111111111111110011111011101111111111111000000000000000000000000000001
1000000000000000000000000000000000010110001001100100010110100001100110
1111111111111111111111111000100111111111111111111100000000000000000000
0000000001100000000000000000000000000000000100010001100100000000100001
0111100111000111111111111111111111100111111101111010111111111000000000
0000000000000000000110000000000000000000000000000010000000000000000010
0110011010101111110001111111111111111111111110010111011111111111111111
1000000000000000000000000000011000000000000000000000000000000000000000
0010000000000001101001111111001111111111111111111111111001111101101111
1111111111100000000000000000000000000001100000000000000000000000000000
0001000100000000101010010100011111101001111111111111111111111111000110
1111111110111111111110000000000000000000000000000110000000000000000000
0000000000010110011001100110001000011001111111111111111111111110111101
1000011011111110111111111111111100000000000000000000000000011000000000
0000000000000000000000000000000000000000000111011011010100011110100000
0000000001011110010110111111111111101111100000000000000000000000000001
1000000000000000000000000000000000000000010000001001000001001010000010
1000001010110010001110101110111110110111111111111111000000000000000000
0000000001100000000000000000000000000000100110010100000110000000110010
0000101010001101000000010111011111101101111111111111111111111100000000
0000000000000000000110000000000000000000000000000000000000000110000000
0010100000001000010011000001011010101001110101011101111111111110111111
1100000000000000000000000000011000000000000000000000000000000001000010
0000010010010000101001001000010001100001010101011110111110011111110111
1011111111110000000000000000000000000001100000000000000000000000000000
0001010010000001010100010010001010010010000010001010010101111110100111
1111111111111111111111000000000000000000000000000110000000000000000000
0000000000000000000001010000000000010010001000010011010010010110101010
0111101010111010111111111111111100000000000000000000000000011000000000
0000000000000000000000000010000100000000101010000100000101010010100101
1101011111110011101111111110111111111111110000000000000000000000000001
1000000000000000000000000000000010010010000010010100000001001010010000
1000100100001010010101111011101111111111111111111111000000000000000000
0000000001100000000000000000000000000000001010001010101010000000000110
0000001010000010010101011011110111010101111111111111111111111100000000
0000000000000000000110000000000000000000000000000000000010000000000010
0110010000010110001010101001100010110101110011111111111111111111111111
1100000000000000000000000000011000000000000000000000000000000000100010
0010001001001001010101011001010101011011101101111111111111111111011111
1111111111110000000000000000000000000001111111111111111111111111111111
1111111111111111111111111111111111111111111111111111111111111111111111
11111111111111111111111111111111111111111111111111